<svg width="72" height="72" viewBox="0 0 72 72" fill="none" xmlns="http://www.w3.org/2000/svg">
<g clip-path="url(#clip0_150_2406)">
<path d="M37.4497 3.98572H41.7949V9.94315C49.5542 9.9855 57.3134 9.85844 65.1151 9.9855C65.4965 9.9401 65.8833 9.98189 66.2463 10.1077C66.6093 10.2336 66.939 10.4402 67.2106 10.712C67.4822 10.9838 67.6887 11.3137 67.8145 11.677C67.9402 12.0402 67.982 12.4272 67.9366 12.8089C68.0565 27.4766 67.9366 42.1514 68.0072 56.8191C67.9366 58.3225 68.1482 59.9884 67.3018 61.3224C66.2366 62.0989 64.8682 62.0283 63.6267 62.0283H41.809V67.9857H37.2522C26.1846 65.9458 15.0959 64.047 4.00716 62.0565V9.95726C15.1523 7.95969 26.3045 6.01858 37.4497 3.98572Z" fill="#0071C5"/>
<path d="M42.0072 11.9857V59.9857H66.0072V11.9857H42.0072ZM55.6801 16.0456L57.0919 18.1786L58.5036 16.0456H59.7177L57.6989 18.9891L59.873 22.1318H58.6589L57.1342 19.7783L55.5742 22.1318H54.3107L56.4707 18.9891L54.4519 16.0456H55.6801ZM53.8095 16.0456V16.8988H50.4354V18.5839H53.6048V19.4371H50.4354V21.2786H53.9648V22.1318H49.4472V16.0456H53.8095ZM43.7719 16.8988V16.0456H48.713V16.8988H46.7436V22.1318H45.7554V16.8988H43.7719ZM64.9977 16.8988H63.0142V22.1318H62.026V16.8988H60.0424V16.0456H64.9836L64.9977 16.8988Z" fill="white"/>
<path d="M44.0072 26.9857H63.0072V29.9054H44.0072V26.9857ZM44.0072 32.0018H63.0072V34.9215H44.0072V32.0018ZM44.0072 37.0178H63.0072V39.9375H44.0072V37.0178ZM44.0072 42.0339H63.0072V44.9536H44.0072V42.0339ZM44.0072 47.05H63.0072V49.9697H44.0072V47.05ZM44.0072 52.066H63.0072V54.9857H44.0072V52.066Z" fill="#0071C5"/>
<path d="M17.616 21.9812L11.0976 23V30.201L17.616 31.1815V21.9812ZM34.9993 52.9985V34.0045L23.2525 45.2123L19.2451 38.9189L11 49.3886L35 53L34.9993 52.9985Z" fill="white"/>
</g>
<defs>
<clipPath id="clip0_150_2406">
<rect width="72" height="72" fill="white"/>
</clipPath>
</defs>
</svg>
