<svg width="32" height="32" viewBox="0 0 32 32" fill="none" xmlns="http://www.w3.org/2000/svg">
<path d="M9.00008 22.5094H11.6688C12.1845 22.5094 12.6032 22.0907 12.6032 21.575C12.6032 21.0594 12.1845 20.6407 11.6688 20.6407H9.00008C6.16571 20.6375 3.86883 18.3407 3.86571 15.5063C3.85321 12.975 5.69696 10.8188 8.19696 10.4344L8.75321 10.3469L8.93446 9.81567C9.96883 6.80005 12.8095 4.77192 16.0001 4.77192C19.1907 4.77192 22.0282 6.79692 23.0657 9.81567L23.2501 10.3469L23.8063 10.4344C26.3063 10.8188 28.1501 12.975 28.1376 15.5063C28.1376 18.3375 25.8345 20.6407 23.0032 20.6407H20.1657C19.6501 20.6407 19.2313 21.0594 19.2313 21.575C19.2313 22.0907 19.6501 22.5094 20.1657 22.5094H23.0001C26.8595 22.5094 30.0001 19.3688 30.0001 15.5094C30.0157 12.2688 27.7938 9.44692 24.6376 8.70317C22.6782 3.9313 17.2251 1.65317 12.4532 3.60942C10.1438 4.5563 8.30946 6.39067 7.35946 8.70317C4.20633 9.4438 1.98446 12.2688 2.00008 15.5094C2.00008 19.3688 5.14071 22.5094 9.00008 22.5094Z" fill="#0068B5"/>
<path d="M22.6689 13C24.2125 13.0001 25.4686 14.2562 25.4688 15.7998C25.4688 17.3435 24.2126 18.5995 22.6689 18.5996H17.0684V22.4873C18.2777 22.8498 19.1691 23.8848 19.3535 25.1348H23V27H19.0723C18.5473 28.0968 17.4315 28.8651 16.1348 28.8652C14.838 28.8652 13.7223 28.0999 13.1973 27H9V25.1309H12.916C13.0974 23.8811 13.9878 22.8468 15.2002 22.4844V18.5996H9.59961C8.05604 18.5994 6.7998 17.3434 6.7998 15.7998C6.79991 14.2563 8.0561 13.0002 9.59961 13H22.6689ZM16.1348 24.2002C15.363 24.2002 14.7346 24.8279 14.7344 25.5996C14.7344 26.3715 15.3629 27 16.1348 27C16.9065 26.9998 17.5342 26.3714 17.5342 25.5996C17.534 24.828 16.9063 24.2004 16.1348 24.2002ZM9.59961 14.8691C9.11855 14.8912 8.73085 15.2755 8.70898 15.7598C8.68422 16.2751 9.08431 16.7123 9.59961 16.7344H22.666C23.1471 16.7123 23.5348 16.328 23.5566 15.8438C23.5816 15.3283 23.1814 14.8912 22.666 14.8691H9.59961Z" fill="#0068B5"/>
<rect x="3" y="24" width="6" height="4" fill="#00AEEF"/>
<rect x="23" y="24" width="6" height="4" fill="#00AEEF"/>
</svg>
