<svg width="32" height="32" viewBox="0 0 32 32" fill="none" xmlns="http://www.w3.org/2000/svg">
<path d="M15.3118 25.8886L7.78995 21.549C7.65103 21.4685 7.5357 21.353 7.4555 21.2139C7.37531 21.0748 7.33307 20.9171 7.33301 20.7566V11.7785C7.33301 11.4558 7.50337 11.1569 7.78114 10.9923L15.3026 6.52807C15.4437 6.44426 15.6049 6.40002 15.769 6.40002C15.9332 6.40002 16.0943 6.44426 16.2354 6.52807L23.7573 10.9927C23.8937 11.0737 24.0067 11.1887 24.0852 11.3266C24.1637 11.4644 24.205 11.6203 24.205 11.7789V20.757C24.205 21.0828 24.0316 21.3848 23.7481 21.5494L16.2262 25.8886C16.0869 25.968 15.9293 26.0097 15.769 26.0097C15.6087 26.0097 15.4511 25.968 15.3118 25.8886ZM8.76854 20.4546L15.7692 24.4931L22.7695 20.455V12.0778L15.7692 7.92354L8.76854 12.0774V20.4546Z" fill="#0068B5"/>
<path d="M15.7694 20.9789L11.7129 18.6383V13.8356L15.7694 11.4281L19.8256 13.8361V18.6388L15.7694 20.9789ZM13.148 17.8094L15.7694 19.3211L18.3905 17.8094V14.6527L15.7694 13.0983L13.148 14.6522V17.8094Z" fill="#0068B5"/>
<path d="M15.4038 15.5871L23.1229 11.0503L23.8501 12.2877L16.131 16.8245L15.4038 15.5871Z" fill="#0068B5"/>
<path d="M16.4849 25.3215H15.0498V16.5358L7.68945 12.2904L8.40876 11.0472L16.4849 15.7064V25.3215ZM9.57796 20.0637C9.61397 20.0809 9.6531 20.0907 9.69299 20.0924C9.73288 20.0941 9.7727 20.0877 9.81006 20.0737C9.84742 20.0596 9.88154 20.0381 9.91037 20.0105C9.9392 19.9828 9.96215 19.9497 9.97782 19.913C9.99349 19.8762 10.0016 19.8367 10.0016 19.7968C10.0015 19.7569 9.99345 19.7174 9.97777 19.6806C9.96209 19.6439 9.93913 19.6108 9.91029 19.5832C9.88145 19.5555 9.84732 19.5341 9.80995 19.52C9.7386 19.4931 9.65963 19.4949 9.58952 19.5248C9.51941 19.5548 9.46357 19.6106 9.43364 19.6807C9.40372 19.7509 9.40203 19.8298 9.42892 19.9012C9.4558 19.9725 9.5092 20.0307 9.57796 20.0637ZM10.3114 19.6111C10.3474 19.6284 10.3865 19.6381 10.4264 19.6399C10.4663 19.6416 10.5061 19.6352 10.5435 19.6211C10.5808 19.607 10.6149 19.5855 10.6438 19.5579C10.6726 19.5303 10.6955 19.4971 10.7112 19.4604C10.7269 19.4237 10.735 19.3842 10.7349 19.3443C10.7349 19.3043 10.7268 19.2648 10.7112 19.2281C10.6955 19.1914 10.6725 19.1582 10.6437 19.1306C10.6148 19.103 10.5807 19.0815 10.5433 19.0675C10.4716 19.0387 10.3914 19.0393 10.32 19.0689C10.2486 19.0986 10.1917 19.155 10.1613 19.2261C10.131 19.2972 10.1297 19.3774 10.1578 19.4494C10.1858 19.5214 10.2409 19.5792 10.3114 19.6111Z" fill="#0068B5"/>
<path d="M11.0702 19.1402C11.1061 19.1565 11.1449 19.1654 11.1843 19.1665C11.2237 19.1675 11.2629 19.1607 11.2996 19.1464C11.3363 19.1321 11.3698 19.1106 11.3981 19.0832C11.4264 19.0558 11.449 19.023 11.4644 18.9868C11.4799 18.9505 11.4879 18.9115 11.4881 18.8721C11.4883 18.8327 11.4806 18.7937 11.4655 18.7573C11.4504 18.7209 11.4282 18.6879 11.4001 18.6602C11.3721 18.6325 11.3388 18.6107 11.3022 18.5961C11.2304 18.5674 11.1503 18.5679 11.0789 18.5975C11.0075 18.6272 10.9505 18.6836 10.9202 18.7547C10.8899 18.8258 10.8886 18.906 10.9166 18.978C10.9447 19.0501 10.9998 19.1083 11.0702 19.1402ZM21.7361 19.9097C21.7502 19.947 21.7716 19.9812 21.7992 20.01C21.8269 20.0389 21.86 20.0618 21.8967 20.0775C21.9334 20.0932 21.973 20.1013 22.0129 20.1013C22.0528 20.1013 22.0923 20.0932 22.129 20.0775C22.1658 20.0619 22.1989 20.0389 22.2266 20.0101C22.2542 19.9813 22.2757 19.9471 22.2898 19.9098C22.3038 19.8724 22.3102 19.8326 22.3085 19.7927C22.3068 19.7528 22.297 19.7137 22.2797 19.6777C22.2468 19.6089 22.1886 19.5555 22.1173 19.5286C22.0459 19.5017 21.967 19.5034 21.8968 19.5334C21.8267 19.5633 21.7709 19.6191 21.7409 19.6892C21.711 19.7594 21.7092 19.8383 21.7361 19.9097ZM21.0014 19.4558C21.0157 19.4929 21.0373 19.5267 21.065 19.5553C21.0926 19.5838 21.1257 19.6065 21.1624 19.6219C21.199 19.6374 21.2383 19.6453 21.2781 19.6452C21.3178 19.6451 21.3571 19.637 21.3937 19.6214C21.4302 19.6057 21.4632 19.5829 21.4908 19.5543C21.5183 19.5256 21.5398 19.4917 21.5539 19.4545C21.568 19.4174 21.5745 19.3778 21.573 19.3381C21.5715 19.2983 21.562 19.2593 21.545 19.2234C21.5124 19.1541 21.4542 19.1001 21.3825 19.0729C21.3109 19.0456 21.2315 19.0472 21.1611 19.0774C21.0906 19.1075 21.0346 19.1638 21.0048 19.2343C20.975 19.3049 20.9738 19.3843 21.0014 19.4558ZM20.2455 18.9861C20.2602 19.0227 20.282 19.056 20.3097 19.084C20.3373 19.1121 20.3703 19.1343 20.4067 19.1494C20.4431 19.1645 20.4822 19.1722 20.5216 19.172C20.561 19.1719 20.6 19.1638 20.6362 19.1483C20.6725 19.1329 20.7053 19.1103 20.7327 19.082C20.7601 19.0537 20.7816 19.0202 20.7959 18.9835C20.8102 18.9468 20.817 18.9076 20.8159 18.8682C20.8148 18.8288 20.8059 18.79 20.7896 18.7541C20.7577 18.6837 20.6995 18.6286 20.6275 18.6005C20.5554 18.5725 20.4753 18.5738 20.4042 18.6041C20.333 18.6344 20.2766 18.6914 20.247 18.7628C20.2173 18.8342 20.2168 18.9143 20.2455 18.9861ZM15.5656 10.9919C15.5935 11.0195 15.6266 11.0414 15.663 11.0561C15.6994 11.0708 15.7384 11.0782 15.7777 11.0777C15.817 11.0772 15.8558 11.0689 15.8918 11.0533C15.9278 11.0376 15.9604 11.015 15.9876 10.9866C16.0147 10.9583 16.036 10.9248 16.0501 10.8881C16.0642 10.8515 16.0709 10.8124 16.0697 10.7731C16.0685 10.7339 16.0596 10.6952 16.0433 10.6595C16.0271 10.6237 16.0039 10.5916 15.975 10.5649C15.9181 10.5121 15.8428 10.4839 15.7652 10.4862C15.6877 10.4885 15.6142 10.5212 15.5605 10.5772C15.5068 10.6332 15.4773 10.708 15.4782 10.7856C15.4792 10.8631 15.5106 10.9372 15.5656 10.9919ZM15.5656 10.1387C15.5933 10.1673 15.6265 10.1899 15.6631 10.2053C15.6998 10.2208 15.7391 10.2286 15.7789 10.2285C15.8187 10.2284 15.858 10.2202 15.8945 10.2046C15.931 10.1889 15.964 10.166 15.9915 10.1373C16.019 10.1086 16.0405 10.0746 16.0545 10.0375C16.0686 10.0003 16.0751 9.96064 16.0735 9.92091C16.0719 9.88119 16.0623 9.84219 16.0453 9.80625C16.0284 9.77031 16.0043 9.73817 15.9746 9.71173C15.9177 9.65902 15.8423 9.63077 15.7648 9.63307C15.6873 9.63537 15.6137 9.66804 15.56 9.72403C15.5064 9.78003 15.4768 9.85487 15.4778 9.93244C15.4787 10.01 15.5101 10.0841 15.5652 10.1387H15.5656ZM15.5652 9.25743C15.5929 9.28601 15.626 9.30873 15.6626 9.32421C15.6992 9.3397 15.7386 9.34763 15.7784 9.34755C15.8182 9.34747 15.8575 9.33938 15.8941 9.32374C15.9306 9.30811 15.9637 9.28526 15.9912 9.25657C16.0188 9.22788 16.0402 9.19393 16.0544 9.15675C16.0685 9.11957 16.0749 9.07992 16.0734 9.04018C16.0718 9.00045 16.0623 8.96143 16.0453 8.92546C16.0283 8.8895 16.0043 8.85732 15.9746 8.83087C15.9177 8.77815 15.8423 8.7499 15.7648 8.75221C15.6873 8.75451 15.6137 8.78717 15.56 8.84317C15.5064 8.89916 15.4768 8.97401 15.4778 9.05158C15.4787 9.12914 15.5101 9.20323 15.5652 9.25787V9.25743Z" fill="#0068B5"/>
<path d="M3 10V3.5C3 3.22386 3.22386 3 3.5 3H10" stroke="#00AEEF" stroke-width="2" stroke-linecap="square"/>
<path d="M29 21V27.5C29 27.7761 28.7761 28 28.5 28H22" stroke="#00AEEF" stroke-width="2" stroke-linecap="square"/>
<path d="M29 10V3.5C29 3.22386 28.7761 3 28.5 3H22" stroke="#00AEEF" stroke-width="2" stroke-linecap="square"/>
<path d="M3 21V27.5C3 27.7761 3.22386 28 3.5 28H10" stroke="#00AEEF" stroke-width="2" stroke-linecap="square"/>
</svg>
