<svg width="16" height="16" viewBox="0 0 16 16" fill="none" xmlns="http://www.w3.org/2000/svg">
<g id="icon16/&#230;&#184;&#133;&#233;&#153;&#164;">
<path id="Vector" d="M14.7188 13.5506C13.3088 12.8631 12.5 11.3893 12.5 9.50057V8.42057C12.5005 8.22021 12.4406 8.02435 12.3281 7.85855C12.2156 7.69275 12.0558 7.56473 11.8694 7.4912L10.3125 6.87495C10.19 6.82595 10.0919 6.73054 10.0394 6.60949C9.98697 6.48844 9.98449 6.35157 10.0325 6.2287L11.365 2.9162C11.4554 2.69879 11.5011 2.46536 11.4992 2.2299C11.4972 1.99444 11.4478 1.76178 11.3539 1.54587C11.2599 1.32995 11.1234 1.13522 10.9524 0.973326C10.7814 0.811435 10.5795 0.685716 10.3588 0.603699C9.92885 0.446177 9.45445 0.462521 9.0364 0.649256C8.61834 0.835992 8.28959 1.1784 8.12001 1.6037C8.11977 1.60619 8.11977 1.60871 8.12001 1.6112L6.80626 4.93745C6.7574 5.06051 6.66173 5.15916 6.54022 5.21177C6.41872 5.26438 6.28131 5.26664 6.15814 5.21807L4.56939 4.5712C4.38621 4.49697 4.18505 4.47909 3.99165 4.51984C3.79826 4.56059 3.62142 4.65812 3.48376 4.79995C2.16751 6.15307 1.50001 7.73432 1.50001 9.49995C1.49655 11.3068 2.19531 13.0442 3.44876 14.3456C3.49573 14.3947 3.5522 14.4337 3.61474 14.4602C3.67728 14.4868 3.74457 14.5003 3.81251 14.4999H14.5C14.613 14.4998 14.7227 14.4615 14.8111 14.391C14.8995 14.3206 14.9614 14.2223 14.9868 14.1122C15.0121 14.0021 14.9995 13.8866 14.9508 13.7846C14.9021 13.6826 14.8203 13.6001 14.7188 13.5506ZM4.19626 5.49995L5.78439 6.1437C5.96771 6.21704 6.1637 6.25346 6.36113 6.25089C6.55856 6.24831 6.75353 6.20678 6.93488 6.12868C7.11622 6.05058 7.28036 5.93745 7.41788 5.79577C7.5554 5.65409 7.6636 5.48666 7.73626 5.30307L9.04876 1.99057C9.20876 1.6087 9.64064 1.4112 10.0131 1.55307C10.1081 1.58831 10.195 1.64242 10.2684 1.71213C10.3419 1.78185 10.4005 1.86573 10.4407 1.95871C10.4809 2.05169 10.5018 2.15185 10.5022 2.25314C10.5027 2.35444 10.4826 2.45476 10.4431 2.54807L9.10564 5.85995C8.95921 6.22937 8.96535 6.64181 9.12272 7.00671C9.2801 7.37161 9.57583 7.65915 9.94501 7.8062L11.5 8.42057V9.49995C11.5 9.52057 11.5 9.5412 11.5 9.56245L3.48564 6.35682C3.6987 6.05226 3.93638 5.76568 4.19626 5.49995ZM7.19626 13.4999C6.45184 12.7859 5.92447 11.8759 5.67501 10.8749C5.64025 10.7484 5.55709 10.6405 5.44349 10.5747C5.32989 10.5089 5.19496 10.4904 5.06785 10.5232C4.94073 10.5561 4.83163 10.6376 4.76409 10.7501C4.69656 10.8627 4.67601 10.9973 4.70689 11.1249C4.92497 11.986 5.31533 12.794 5.85439 13.4999H4.02751C3.04138 12.4013 2.4972 10.9763 2.50001 9.49995C2.4939 8.71774 2.65878 7.94364 2.98314 7.23182L11.5956 10.6768C11.7831 11.8018 12.2556 12.7693 12.9638 13.4993L7.19626 13.4999Z" fill="#898EA3"/>
</g>
</svg>
