<svg xmlns="http://www.w3.org/2000/svg" width="16" height="16" viewBox="0 0 16 16" fill="none">
  <path d="M11.5 4V12C11.5 12.1326 11.4473 12.2598 11.3536 12.3536C11.2598 12.4473 11.1326 12.5 11 12.5C10.8674 12.5 10.7402 12.4473 10.6464 12.3536C10.5527 12.2598 10.5 12.1326 10.5 12V4C10.5 3.86739 10.5527 3.74021 10.6464 3.64645C10.7402 3.55268 10.8674 3.5 11 3.5C11.1326 3.5 11.2598 3.55268 11.3536 3.64645C11.4473 3.74021 11.5 3.86739 11.5 4ZM14 3.5C13.8674 3.5 13.7402 3.55268 13.6464 3.64645C13.5527 3.74021 13.5 3.86739 13.5 4V12C13.5 12.1326 13.5527 12.2598 13.6464 12.3536C13.7402 12.4473 13.8674 12.5 14 12.5C14.1326 12.5 14.2598 12.4473 14.3536 12.3536C14.4473 12.2598 14.5 12.1326 14.5 12V4C14.5 3.86739 14.4473 3.74021 14.3536 3.64645C14.2598 3.55268 14.1326 3.5 14 3.5ZM9 8C9.00025 8.16635 8.95837 8.33006 8.87827 8.47585C8.79816 8.62164 8.68243 8.74477 8.54187 8.83375L3.03 12.3431C2.88001 12.439 2.70703 12.4929 2.52911 12.4991C2.3512 12.5053 2.17488 12.4637 2.01856 12.3785C1.86224 12.2933 1.73165 12.1677 1.64044 12.0148C1.54922 11.862 1.50072 11.6874 1.5 11.5094V4.49062C1.50072 4.3126 1.54922 4.13804 1.64044 3.98516C1.73165 3.83228 1.86224 3.70669 2.01856 3.62151C2.17488 3.53632 2.3512 3.49467 2.52911 3.50089C2.70703 3.50711 2.88001 3.56098 3.03 3.65687L8.54187 7.16625C8.68243 7.25523 8.79816 7.37836 8.87827 7.52415C8.95837 7.66994 9.00025 7.83365 9 8ZM7.98875 8L2.5 4.505V11.4956L7.98875 8Z" fill="#262626"/>
</svg>