<svg width="16" height="16" viewBox="0 0 16 16" fill="none" xmlns="http://www.w3.org/2000/svg">
<path d="M13.3541 11.3538L11.3541 13.3538C11.2603 13.4476 11.1331 13.5003 11.0004 13.5003C10.8677 13.5003 10.7405 13.4476 10.6466 13.3538C10.5528 13.26 10.5001 13.1327 10.5001 13C10.5001 12.8674 10.5528 12.7401 10.6466 12.6463L11.7935 11.5H3.00039C2.86779 11.5 2.74061 11.4474 2.64684 11.3536C2.55307 11.2598 2.50039 11.1326 2.50039 11C2.50039 10.8674 2.55307 10.7402 2.64684 10.6465C2.74061 10.5527 2.86779 10.5 3.00039 10.5H11.7935L10.6466 9.35378C10.5528 9.25996 10.5001 9.13272 10.5001 9.00003C10.5001 8.86735 10.5528 8.7401 10.6466 8.64628C10.7405 8.55246 10.8677 8.49976 11.0004 8.49976C11.1331 8.49976 11.2603 8.55246 11.3541 8.64628L13.3541 10.6463C13.4006 10.6927 13.4375 10.7479 13.4627 10.8086C13.4878 10.8693 13.5008 10.9343 13.5008 11C13.5008 11.0657 13.4878 11.1308 13.4627 11.1915C13.4375 11.2522 13.4006 11.3073 13.3541 11.3538ZM4.64664 7.35378C4.74046 7.4476 4.86771 7.50031 5.00039 7.50031C5.13308 7.50031 5.26032 7.4476 5.35414 7.35378C5.44796 7.25996 5.50067 7.13272 5.50067 7.00003C5.50067 6.86735 5.44796 6.7401 5.35414 6.64628L4.20727 5.50003H13.0004C13.133 5.50003 13.2602 5.44736 13.3539 5.35359C13.4477 5.25982 13.5004 5.13264 13.5004 5.00003C13.5004 4.86743 13.4477 4.74025 13.3539 4.64648C13.2602 4.55271 13.133 4.50003 13.0004 4.50003H4.20727L5.35414 3.35378C5.44796 3.25996 5.50067 3.13272 5.50067 3.00003C5.50067 2.86735 5.44796 2.7401 5.35414 2.64628C5.26032 2.55246 5.13308 2.49976 5.00039 2.49976C4.86771 2.49976 4.74046 2.55246 4.64664 2.64628L2.64664 4.64628C2.60016 4.69272 2.56328 4.74786 2.53811 4.80856C2.51295 4.86926 2.5 4.93433 2.5 5.00003C2.5 5.06574 2.51295 5.13081 2.53811 5.1915C2.56328 5.2522 2.60016 5.30735 2.64664 5.35378L4.64664 7.35378Z" fill="#344054"/>
</svg>
