<svg width="20" height="20" viewBox="0 0 20 20" fill="none" xmlns="http://www.w3.org/2000/svg">
<g clip-path="url(#clip0_1338_48665)">
<path d="M9.26855 14.083C9.42305 14.0831 9.57138 14.1447 9.68066 14.2539C9.79006 14.3633 9.85156 14.5123 9.85156 14.667C9.85148 14.8216 9.78994 14.9698 9.68066 15.0791C9.57137 15.1884 9.4231 15.2499 9.26855 15.25H3.58301C3.42842 15.2499 3.28022 15.1884 3.1709 15.0791C3.06158 14.9698 3.00009 14.8216 3 14.667C3 14.5123 3.0615 14.3633 3.1709 14.2539C3.2802 14.1447 3.42849 14.0831 3.58301 14.083H9.26855ZM16.752 9.40039C16.8254 9.42061 16.8885 9.45515 16.9326 9.49902C16.9764 9.54273 16.9999 9.59399 17 9.64648V14.9834C16.9999 15.0359 16.9764 15.0871 16.9326 15.1309C16.8885 15.1747 16.8254 15.2093 16.752 15.2295C16.6785 15.2497 16.5975 15.2554 16.5195 15.2451C16.4416 15.2348 16.3697 15.2091 16.3135 15.1719L12.291 12.5039C12.2536 12.4791 12.2243 12.4494 12.2041 12.417C12.184 12.3848 12.1729 12.3503 12.1729 12.3154C12.1729 12.2804 12.1839 12.2453 12.2041 12.2129C12.2243 12.1805 12.2536 12.1507 12.291 12.126L16.3135 9.45801C16.3697 9.42074 16.4416 9.39506 16.5195 9.38477C16.5975 9.37451 16.6785 9.38021 16.752 9.40039ZM9.26855 9.41699C9.4231 9.41711 9.57137 9.4786 9.68066 9.58789C9.78992 9.69727 9.85156 9.8454 9.85156 10C9.85156 10.1546 9.78992 10.3027 9.68066 10.4121C9.57137 10.5214 9.4231 10.5829 9.26855 10.583H3.58301C3.42842 10.5829 3.28022 10.5214 3.1709 10.4121C3.0616 10.3027 3 10.1546 3 10C3 9.84537 3.0616 9.69727 3.1709 9.58789C3.28022 9.47857 3.42842 9.41708 3.58301 9.41699H9.26855ZM16.417 4.75C16.5716 4.75009 16.7198 4.81158 16.8291 4.9209C16.9384 5.03022 16.9999 5.17842 17 5.33301C17 5.48772 16.9385 5.6367 16.8291 5.74609C16.7198 5.85531 16.5715 5.91691 16.417 5.91699H3.58301C3.42849 5.91691 3.2802 5.85531 3.1709 5.74609C3.0615 5.6367 3 5.48772 3 5.33301C3.00009 5.17842 3.06158 5.03022 3.1709 4.9209C3.28022 4.81158 3.42842 4.75009 3.58301 4.75H16.417Z" fill="black"/>
</g>
<defs>
<clipPath id="clip0_1338_48665">
<rect width="16" height="16" fill="white" transform="translate(2 2)"/>
</clipPath>
</defs>
</svg>
