<svg width="16" height="16" viewBox="0 0 16 16" fill="none" xmlns="http://www.w3.org/2000/svg">
<path d="M16 8C16 12.4183 12.4183 16 8 16C3.58172 16 0 12.4183 0 8C0 3.58172 3.58172 0 8 0C12.4183 0 16 3.58172 16 8ZM2.96 8C2.96 10.7835 5.21649 13.04 8 13.04C10.7835 13.04 13.04 10.7835 13.04 8C13.04 5.21649 10.7835 2.96 8 2.96C5.21649 2.96 2.96 5.21649 2.96 8Z" fill="#D7D7D7"/>
<path d="M16 8C16 10.1217 15.1571 12.1566 13.6569 13.6569C12.1566 15.1571 10.1217 16 8 16C5.87827 16 3.84344 15.1571 2.34315 13.6569C0.842855 12.1566 3.20373e-07 10.1217 0 8H2.96C2.96 9.33669 3.491 10.6186 4.43618 11.5638C5.38137 12.509 6.66331 13.04 8 13.04C9.33669 13.04 10.6186 12.509 11.5638 11.5638C12.509 10.6186 13.04 9.33669 13.04 8H16Z" fill="#0068B5"/>
</svg>
