<svg width="16" height="16" viewBox="0 0 16 16" fill="none" xmlns="http://www.w3.org/2000/svg">
<path d="M9.14355 9.28003C9.49621 9.28004 9.79198 9.30159 10.0303 9.34448C10.1446 9.36358 10.2402 9.42111 10.3164 9.51636C10.3926 9.61166 10.4307 9.7195 10.4307 9.83862V9.89526C10.4306 9.99528 10.3875 10.0744 10.3018 10.1316C10.2208 10.1887 10.1323 10.2052 10.0371 10.1814C9.8037 10.1195 9.5415 10.0886 9.25098 10.0886C8.77908 10.0886 8.40647 10.2508 8.13477 10.575C7.86807 10.899 7.73444 11.3615 7.73438 11.9617C7.7344 12.5572 7.87321 13.0195 8.14941 13.3484C8.43065 13.6725 8.80533 13.8347 9.27246 13.8347C9.58684 13.8347 9.85616 13.8059 10.0801 13.7488C10.1753 13.7251 10.2638 13.7424 10.3447 13.7996C10.4304 13.8568 10.4736 13.9359 10.4736 14.0359V14.0847C10.4736 14.2037 10.4354 14.3118 10.3594 14.407C10.288 14.4974 10.1922 14.5519 10.0732 14.571C9.8016 14.6187 9.49863 14.6433 9.16504 14.6433C8.412 14.6433 7.8134 14.4122 7.37012 13.95C6.93162 13.4829 6.71292 12.8196 6.71289 11.9617C6.71296 11.1136 6.92467 10.4561 7.34863 9.98901C7.77763 9.51711 8.37612 9.28003 9.14355 9.28003ZM1.62988 9.35229C1.75353 9.35236 1.86799 9.38539 1.97266 9.4519C2.07733 9.51855 2.15351 9.60715 2.20117 9.71655L3.45312 12.4197C3.45319 12.4243 3.45528 12.4265 3.45996 12.4265C3.46461 12.4265 3.46673 12.4243 3.4668 12.4197L4.71875 9.71655C4.7664 9.60718 4.84263 9.51854 4.94727 9.4519C5.052 9.38537 5.16727 9.35229 5.29102 9.35229H5.49805C5.60732 9.3524 5.70236 9.39273 5.7832 9.47339C5.86418 9.55436 5.90521 9.64999 5.90527 9.75952V14.1638C5.90527 14.2734 5.86418 14.3689 5.7832 14.45C5.70231 14.5307 5.60742 14.5709 5.49805 14.571H5.33984C5.23045 14.5709 5.13558 14.5308 5.05469 14.45C4.97365 14.3689 4.93262 14.2735 4.93262 14.1638V11.0535C4.93247 11.0491 4.93013 11.0468 4.92578 11.0466C4.92135 11.0467 4.91813 11.0491 4.91797 11.0535L4.06055 12.8914C4.00815 13.0008 3.92685 13.0914 3.81738 13.1628C3.71257 13.2295 3.60054 13.2634 3.48145 13.2634H3.43848C3.3194 13.2634 3.20526 13.2295 3.0957 13.1628C2.99095 13.0914 2.91181 13.0008 2.85938 12.8914L2.00195 11.0535C2.0018 11.0491 1.99861 11.0467 1.99414 11.0466C1.98969 11.0467 1.98745 11.0491 1.9873 11.0535V14.1638C1.9873 14.2734 1.94621 14.3689 1.86523 14.45C1.78437 14.5308 1.68941 14.5709 1.58008 14.571H1.45117C1.34163 14.571 1.24603 14.5309 1.16504 14.45C1.08411 14.369 1.04297 14.2734 1.04297 14.1638V9.75952C1.04303 9.64999 1.08407 9.55436 1.16504 9.47339C1.246 9.39257 1.34169 9.35229 1.45117 9.35229H1.62988ZM13.1387 9.28003C13.8536 9.28006 14.3906 9.42374 14.748 9.70972C15.1052 9.9909 15.2832 10.4009 15.2832 10.9392C15.2832 11.535 15.1096 11.9857 14.7617 12.2908C14.4185 12.5958 13.9082 12.7488 13.2314 12.7488C13.0742 12.7488 12.8666 12.7385 12.6094 12.7195C12.5714 12.7196 12.5528 12.7391 12.5527 12.7771V14.1638C12.5527 14.2733 12.5115 14.369 12.4307 14.45C12.3497 14.5308 12.254 14.571 12.1445 14.571H11.9668C11.8572 14.571 11.7607 14.531 11.6797 14.45C11.6036 14.369 11.5664 14.2733 11.5664 14.1638V9.79565C11.5664 9.68137 11.6036 9.57854 11.6797 9.48804C11.756 9.39747 11.8524 9.34718 11.9668 9.33765C12.3716 9.29956 12.7624 9.28004 13.1387 9.28003ZM13.1387 10.0593C12.9672 10.0593 12.7904 10.0716 12.6094 10.0955C12.5715 10.105 12.5529 10.129 12.5527 10.1667V11.8904C12.5528 11.9236 12.5714 11.9453 12.6094 11.9548C12.7904 11.9787 12.9672 11.991 13.1387 11.991C13.5247 11.9909 13.8184 11.9068 14.0186 11.74C14.2233 11.5684 14.3262 11.3249 14.3262 11.0105C14.326 10.3769 13.9296 10.0594 13.1387 10.0593ZM9.63477 1.92163C9.70688 1.92163 9.77906 1.93607 9.8457 1.96362C9.91222 1.99122 9.97249 2.03187 10.0234 2.08276L13.873 5.93237C13.924 5.98343 13.9646 6.04441 13.9922 6.11108C14.0197 6.17765 14.0351 6.24902 14.0352 6.32104V7.97144C14.0351 8.11721 13.9761 8.257 13.873 8.36011C13.7699 8.46322 13.6302 8.52218 13.4844 8.52222C13.3386 8.52215 13.1988 8.46319 13.0957 8.36011C12.9927 8.25701 12.9346 8.11717 12.9346 7.97144V6.87183H9.63477C9.48908 6.8718 9.34918 6.81362 9.24609 6.71069C9.14295 6.60755 9.08398 6.46691 9.08398 6.32104V3.02222H3.03516V7.97144C3.03512 8.11721 2.9761 8.257 2.87305 8.36011C2.76994 8.46322 2.63019 8.52218 2.48438 8.52222C2.33859 8.52215 2.19879 8.46319 2.0957 8.36011C1.9927 8.25701 1.9346 8.11717 1.93457 7.97144V3.02222C1.93457 2.73048 2.05055 2.45019 2.25684 2.2439C2.46312 2.03767 2.74346 1.92163 3.03516 1.92163H9.63477ZM10.1846 5.77222H12.1572L10.1846 3.79956V5.77222Z" fill="url(#paint0_linear_1928_37013)"/>
<defs>
<linearGradient id="paint0_linear_1928_37013" x1="15.2832" y1="8.28247" x2="1.04297" y2="8.28247" gradientUnits="userSpaceOnUse">
<stop stop-color="#9747FF"/>
<stop offset="1" stop-color="#4F4DFF"/>
</linearGradient>
</defs>
</svg>
