<svg width="20" height="21" viewBox="0 0 20 21" fill="none" xmlns="http://www.w3.org/2000/svg">
<path d="M17.5 7.4165V17.4165C17.5 18.337 16.7535 19.0835 15.833 19.0835H4.16699C3.24652 19.0835 2.5 18.337 2.5 17.4165V4.0835C2.5 3.16302 3.24652 2.4165 4.16699 2.4165H12.5L17.5 7.4165ZM10.8027 10.7495C10.174 10.7495 9.68349 10.943 9.33203 11.3296C8.98453 11.7123 8.81055 12.2517 8.81055 12.9468C8.8106 13.6494 8.99056 14.1921 9.34961 14.5747C9.71279 14.9535 10.2033 15.1431 10.8203 15.1431C11.0936 15.1431 11.3419 15.1235 11.5645 15.0845C11.6619 15.0688 11.7403 15.0238 11.7988 14.9497C11.8612 14.8717 11.8926 14.7836 11.8926 14.686V14.645C11.8925 14.5632 11.8573 14.4985 11.7871 14.4517C11.7208 14.4049 11.6483 14.3912 11.5703 14.4106C11.3868 14.4575 11.1659 14.4809 10.9082 14.481C10.5255 14.481 10.2187 14.3481 9.98828 14.0825C9.76198 13.8131 9.64849 13.4346 9.64844 12.9468C9.64844 12.4548 9.75791 12.0756 9.97656 11.8101C10.1992 11.5445 10.504 11.4116 10.8906 11.4116C11.1288 11.4116 11.3438 11.437 11.5352 11.4878C11.6132 11.5072 11.6856 11.4936 11.752 11.4468C11.822 11.3999 11.8574 11.3353 11.8574 11.2534V11.2065C11.8574 11.109 11.8261 11.0209 11.7637 10.9429C11.7012 10.8648 11.6229 10.8179 11.5293 10.8022C11.3341 10.7671 11.0917 10.7495 10.8027 10.7495ZM4.5 10.8081C4.41035 10.8082 4.33192 10.8414 4.26562 10.9077C4.19935 10.974 4.16705 11.0524 4.16699 11.1421V14.7505C4.16699 14.8402 4.19943 14.9185 4.26562 14.9849C4.33192 15.0512 4.41035 15.0844 4.5 15.0845H4.60547C4.69525 15.0845 4.77347 15.0512 4.83984 14.9849C4.90623 14.9185 4.93945 14.8403 4.93945 14.7505V12.2026C4.93945 12.1988 4.94159 12.1969 4.94531 12.1968C4.94922 12.1968 4.95117 12.1987 4.95117 12.2026L5.6543 13.7085C5.69722 13.7981 5.76196 13.8717 5.84766 13.9302C5.93747 13.9848 6.03128 14.0122 6.12891 14.0122H6.16406C6.26166 14.0122 6.35356 13.9848 6.43945 13.9302C6.52901 13.8717 6.59576 13.7981 6.63867 13.7085L7.3418 12.2026C7.3418 12.1987 7.34375 12.1968 7.34766 12.1968C7.35128 12.1969 7.35352 12.1989 7.35352 12.2026V14.7505C7.35352 14.8403 7.38674 14.9185 7.45312 14.9849C7.51936 15.051 7.59697 15.0844 7.68652 15.0845H7.81543C7.9052 15.0845 7.98344 15.0512 8.0498 14.9849C8.11619 14.9185 8.14941 14.8403 8.14941 14.7505V11.1421C8.14935 11.0524 8.11613 10.974 8.0498 10.9077C7.98349 10.8416 7.9051 10.8081 7.81543 10.8081H7.64551C7.54433 10.8082 7.45089 10.8357 7.36523 10.8901C7.27943 10.9447 7.2168 11.0173 7.17773 11.1069L6.15234 13.3218C6.15222 13.3254 6.15022 13.3276 6.14648 13.3276C6.14271 13.3276 6.14075 13.3254 6.14062 13.3218L5.11523 11.1069C5.07617 11.0173 5.01355 10.9447 4.92773 10.8901C4.84191 10.8356 4.74788 10.8081 4.64648 10.8081H4.5ZM14.0762 10.7495C13.7677 10.7495 13.4471 10.7652 13.1152 10.7964C13.0216 10.8042 12.9433 10.8453 12.8809 10.9194C12.8184 10.9936 12.7872 11.0777 12.7871 11.1714V14.7505C12.7871 14.8403 12.8184 14.9185 12.8809 14.9849C12.9472 15.0513 13.0254 15.0845 13.1152 15.0845H13.2617C13.3515 15.0845 13.4297 15.0512 13.4961 14.9849C13.5624 14.9185 13.5957 14.8403 13.5957 14.7505V13.6138C13.5959 13.5828 13.6115 13.5669 13.6426 13.5669C13.8534 13.5825 14.0235 13.5903 14.1523 13.5903C14.7065 13.5903 15.1242 13.466 15.4053 13.2163C15.6903 12.9664 15.833 12.597 15.833 12.1089C15.833 11.6676 15.6864 11.3315 15.3936 11.1011C15.1007 10.867 14.6616 10.7496 14.0762 10.7495ZM14.0762 11.3882C14.7242 11.3883 15.0479 11.6482 15.0479 12.1675C15.0478 12.4252 14.9638 12.6246 14.7959 12.7651C14.6319 12.9015 14.3921 12.9702 14.0762 12.9702C13.9357 12.9702 13.7909 12.9604 13.6426 12.9409C13.6115 12.9331 13.5958 12.9153 13.5957 12.8882V11.4761C13.5957 11.4449 13.6114 11.4253 13.6426 11.4175C13.7909 11.398 13.9356 11.3882 14.0762 11.3882Z" fill="#CCCCD0"/>
<path d="M12.5 2.4165L17.5 7.4165H13.3333C12.8731 7.4165 12.5 7.04341 12.5 6.58317V2.4165Z" fill="#E4E6EB"/>
</svg>
