<svg width="21" height="21" viewBox="0 0 21 21" fill="none" xmlns="http://www.w3.org/2000/svg">
<path d="M18 7.4165V17.4165C18 18.337 17.2535 19.0835 16.333 19.0835H4.66699C3.74652 19.0835 3 18.337 3 17.4165V4.0835C3 3.16302 3.74652 2.4165 4.66699 2.4165H13L18 7.4165ZM11.3027 10.7495C10.674 10.7495 10.1835 10.943 9.83203 11.3296C9.48453 11.7123 9.31055 12.2517 9.31055 12.9468C9.3106 13.6494 9.49056 14.1921 9.84961 14.5747C10.2128 14.9535 10.7033 15.1431 11.3203 15.1431C11.5936 15.1431 11.8419 15.1235 12.0645 15.0845C12.1619 15.0688 12.2403 15.0238 12.2988 14.9497C12.3612 14.8717 12.3926 14.7836 12.3926 14.686V14.645C12.3925 14.5632 12.3573 14.4985 12.2871 14.4517C12.2208 14.4049 12.1483 14.3912 12.0703 14.4106C11.8868 14.4575 11.6659 14.4809 11.4082 14.481C11.0255 14.481 10.7187 14.3481 10.4883 14.0825C10.262 13.8131 10.1485 13.4346 10.1484 12.9468C10.1484 12.4548 10.2579 12.0756 10.4766 11.8101C10.6992 11.5445 11.004 11.4116 11.3906 11.4116C11.6288 11.4116 11.8438 11.437 12.0352 11.4878C12.1132 11.5072 12.1856 11.4936 12.252 11.4468C12.322 11.3999 12.3574 11.3353 12.3574 11.2534V11.2065C12.3574 11.109 12.3261 11.0209 12.2637 10.9429C12.2012 10.8648 12.1229 10.8179 12.0293 10.8022C11.8341 10.7671 11.5917 10.7495 11.3027 10.7495ZM5 10.8081C4.91035 10.8082 4.83192 10.8414 4.76562 10.9077C4.69935 10.974 4.66705 11.0524 4.66699 11.1421V14.7505C4.66699 14.8402 4.69943 14.9185 4.76562 14.9849C4.83192 15.0512 4.91035 15.0844 5 15.0845H5.10547C5.19525 15.0845 5.27347 15.0512 5.33984 14.9849C5.40623 14.9185 5.43945 14.8403 5.43945 14.7505V12.2026C5.43945 12.1988 5.44159 12.1969 5.44531 12.1968C5.44922 12.1968 5.45117 12.1987 5.45117 12.2026L6.1543 13.7085C6.19722 13.7981 6.26196 13.8717 6.34766 13.9302C6.43747 13.9848 6.53128 14.0122 6.62891 14.0122H6.66406C6.76166 14.0122 6.85356 13.9848 6.93945 13.9302C7.02901 13.8717 7.09576 13.7981 7.13867 13.7085L7.8418 12.2026C7.8418 12.1987 7.84375 12.1968 7.84766 12.1968C7.85128 12.1969 7.85352 12.1989 7.85352 12.2026V14.7505C7.85352 14.8403 7.88674 14.9185 7.95312 14.9849C8.01936 15.051 8.09697 15.0844 8.18652 15.0845H8.31543C8.4052 15.0845 8.48344 15.0512 8.5498 14.9849C8.61619 14.9185 8.64941 14.8403 8.64941 14.7505V11.1421C8.64935 11.0524 8.61613 10.974 8.5498 10.9077C8.48349 10.8416 8.4051 10.8081 8.31543 10.8081H8.14551C8.04433 10.8082 7.95089 10.8357 7.86523 10.8901C7.77943 10.9447 7.7168 11.0173 7.67773 11.1069L6.65234 13.3218C6.65222 13.3254 6.65022 13.3276 6.64648 13.3276C6.64271 13.3276 6.64075 13.3254 6.64062 13.3218L5.61523 11.1069C5.57617 11.0173 5.51355 10.9447 5.42773 10.8901C5.34191 10.8356 5.24788 10.8081 5.14648 10.8081H5ZM14.5762 10.7495C14.2677 10.7495 13.9471 10.7652 13.6152 10.7964C13.5216 10.8042 13.4433 10.8453 13.3809 10.9194C13.3184 10.9936 13.2872 11.0777 13.2871 11.1714V14.7505C13.2871 14.8403 13.3184 14.9185 13.3809 14.9849C13.4472 15.0513 13.5254 15.0845 13.6152 15.0845H13.7617C13.8515 15.0845 13.9297 15.0512 13.9961 14.9849C14.0624 14.9185 14.0957 14.8403 14.0957 14.7505V13.6138C14.0959 13.5828 14.1115 13.5669 14.1426 13.5669C14.3534 13.5825 14.5235 13.5903 14.6523 13.5903C15.2065 13.5903 15.6242 13.466 15.9053 13.2163C16.1903 12.9664 16.333 12.597 16.333 12.1089C16.333 11.6676 16.1864 11.3315 15.8936 11.1011C15.6007 10.867 15.1616 10.7496 14.5762 10.7495ZM14.5762 11.3882C15.2242 11.3883 15.5479 11.6482 15.5479 12.1675C15.5478 12.4252 15.4638 12.6246 15.2959 12.7651C15.1319 12.9015 14.8921 12.9702 14.5762 12.9702C14.4357 12.9702 14.2909 12.9604 14.1426 12.9409C14.1115 12.9331 14.0958 12.9153 14.0957 12.8882V11.4761C14.0957 11.4449 14.1114 11.4253 14.1426 11.4175C14.2909 11.398 14.4356 11.3882 14.5762 11.3882Z" fill="#4f4dff"/>
<path d="M13 2.4165L18 7.4165H13.8333C13.3731 7.4165 13 7.04341 13 6.58317V2.4165Z" fill="#CCCCD0"/>
</svg>
