<svg width="20" height="20" viewBox="0 0 20 20" fill="none" xmlns="http://www.w3.org/2000/svg">
<path d="M16.9653 6.41532L9.99687 2.74902L3.3109 6.26465L3.04095 6.40904L9.99687 9.88072L10.0785 9.84305L16.9842 6.42787L16.9653 6.41532Z" fill="#CCCCD0"/>
<path d="M18.359 5.74359C18.2506 5.52347 18.0776 5.34168 17.8631 5.22253L10.5305 1.34278C10.3659 1.25644 10.1828 1.21133 9.99688 1.21133C9.81099 1.21133 9.62788 1.25644 9.46326 1.34278L2.13695 5.19741C2.01973 5.26672 1.91733 5.35845 1.83561 5.46736C1.76221 5.54023 1.69887 5.62257 1.64727 5.7122C1.55792 5.87142 1.5104 6.0507 1.50916 6.23327V13.7668C1.51111 13.9774 1.57064 14.1835 1.68129 14.3628C1.79195 14.542 1.94951 14.6876 2.13695 14.7838L9.45698 18.6384C9.61761 18.726 9.79545 18.7774 9.97804 18.7891H10.0659C10.2208 18.7784 10.3722 18.7379 10.5117 18.6698L17.8317 14.7963C18.0201 14.6981 18.1782 14.5503 18.2888 14.3688C18.3994 14.1874 18.4584 13.9792 18.4595 13.7668V6.23327C18.4634 6.06455 18.4291 5.89714 18.359 5.74359ZM16.9842 6.42788L10.0785 9.84306L9.99688 9.88701V17.2133L3.00957 13.5407V6.42161L3.27952 6.27721L9.99688 2.74903L16.9653 6.41533L16.9842 6.42788Z" fill="#4f4dff"/>
</svg>
