<svg width="121" height="120" viewBox="0 0 121 120" fill="none" xmlns="http://www.w3.org/2000/svg">
<path d="M14.6692 40.3567C10.2277 40.3567 6.90919 44.4397 7.81695 48.7874L14.3939 80.2874C15.0713 83.532 17.9315 85.8567 21.2461 85.8567H31.0609L35.1386 71.8933L36.0411 68.803L39.2664 57.7583C40.0495 55.0766 42.3522 53.1173 45.1246 52.7736L81.9267 48.2115C80.9236 47.6637 79.7778 47.3567 78.574 47.3567H36.6092C34.6627 47.3567 32.8041 46.5462 31.4796 45.1198L29.1338 42.5935C27.8093 41.1672 25.9507 40.3567 24.0042 40.3567H14.6692Z" fill="url(#paint0_linear_1353_19457)"/>
<path d="M91.8047 23.0305C96.1203 22.6553 99.9507 25.7836 100.445 30.0871L102.239 45.6935L99.2615 46.0626L97.4649 30.4299C97.1654 27.8242 94.9094 25.9082 92.3165 26.0041L92.0645 26.0198L27.5108 31.633C24.7058 31.8769 22.6552 34.3876 22.9766 37.1848L26.1485 64.7834L26.1837 65.0334C26.6076 67.5933 28.9358 69.4208 31.5489 69.1936L36.0411 68.803L35.1386 71.8933L31.8087 72.1828L31.4053 72.2073C27.3908 72.3557 23.8815 69.4898 23.2247 65.5266L23.168 65.1262L19.9962 37.5276C19.4978 33.192 22.5609 29.2865 26.8331 28.6916L27.2501 28.6438L91.8047 23.0305Z" fill="#9DA4BB"/>
<path d="M99.2615 46.0626L81.9267 48.2115L45.1246 52.7736C42.3522 53.1173 40.0495 55.0766 39.2664 57.7583L36.0411 68.803L35.1386 71.8933L31.0609 85.8567L30.5408 87.6378C29.1299 92.4691 33.1264 97.166 38.1213 96.5468L99.4888 88.9395C102.261 88.5958 104.564 86.6366 105.347 83.9549L114.073 54.0754C115.483 49.244 111.487 44.5471 106.492 45.1663L102.239 45.6935L99.2615 46.0626Z" fill="url(#paint1_linear_1353_19457)"/>
<path d="M94.5566 55.5187C94.5566 54.2799 95.4717 53.2317 96.699 53.0643L102.745 52.2399C104.232 52.0371 105.557 53.1932 105.557 54.6942C105.557 55.9329 104.642 56.9812 103.414 57.1486L97.3684 57.973C95.8811 58.1758 94.5566 57.0197 94.5566 55.5187Z" fill="white"/>
<defs>
<linearGradient id="paint0_linear_1353_19457" x1="61.013" y1="23" x2="61.013" y2="96.602" gradientUnits="userSpaceOnUse">
<stop stop-color="#C2DBFF"/>
<stop offset="1" stop-color="#C2DBFF" stop-opacity="0"/>
</linearGradient>
<linearGradient id="paint1_linear_1353_19457" x1="68.0567" y1="49.8567" x2="68.0567" y2="97.8567" gradientUnits="userSpaceOnUse">
<stop stop-color="#4f4dff" stop-opacity="0.6"/>
<stop offset="1" stop-color="#4f4dff" stop-opacity="0"/>
</linearGradient>
</defs>
</svg>
