<svg width="20" height="20" viewBox="0 0 20 20" fill="none" xmlns="http://www.w3.org/2000/svg">
<path d="M17.7505 16.8755L16.8755 17.7505L15.9517 16.8267L16.8267 15.9517L17.7505 16.8755ZM2.87549 3.75051C5.25049 0.875506 9.62549 0.500506 12.5005 2.87551C15.375 5.2506 15.7504 9.62567 13.3755 12.5005L15.7046 14.8296L14.8296 15.7046L12.5005 13.3755C10.0007 15.5004 6.25049 15.5001 3.75049 13.3755C0.875501 11.0005 0.500519 6.62551 2.87549 3.75051ZM8.12549 2.50051C5.00049 2.50051 2.50049 5.00051 2.50049 8.12551C2.50072 11.2503 5.00064 13.7505 8.12549 13.7505C11.2501 13.7503 13.7503 11.2501 13.7505 8.12551C13.7505 5.00066 11.2503 2.50075 8.12549 2.50051Z" fill="#0068B5"/>
<path d="M17.7505 16.8755L17.9273 17.0523L18.104 16.8755L17.9273 16.6987L17.7505 16.8755ZM16.8755 17.7505L16.6987 17.9273L16.8755 18.1041L17.0523 17.9273L16.8755 17.7505ZM15.9517 16.8267L15.7749 16.6499L15.5981 16.8267L15.7749 17.0035L15.9517 16.8267ZM16.8267 15.9517L17.0034 15.7749L16.8267 15.5981L16.6499 15.7749L16.8267 15.9517ZM2.87549 3.75051L2.68275 3.59129L2.68275 3.59129L2.87549 3.75051ZM12.5005 2.87551L12.6597 2.68278L12.6597 2.68277L12.5005 2.87551ZM13.3755 12.5005L13.1827 12.3413L13.038 12.5165L13.1987 12.6773L13.3755 12.5005ZM15.7046 14.8296L15.8814 15.0064L16.0581 14.8296L15.8814 14.6528L15.7046 14.8296ZM14.8296 15.7046L14.6528 15.8814L14.8296 16.0582L15.0064 15.8814L14.8296 15.7046ZM12.5005 13.3755L12.6773 13.1987L12.5142 13.0357L12.3386 13.185L12.5005 13.3755ZM3.75049 13.3755L3.9124 13.185L3.90971 13.1828L3.75049 13.3755ZM8.12549 2.50051L8.12551 2.25051H8.12549V2.50051ZM2.50049 8.12551H2.25049L2.25049 8.12552L2.50049 8.12551ZM8.12549 13.7505V14.0005H8.12551L8.12549 13.7505ZM13.7505 8.12551L14.0005 8.12552V8.12551H13.7505ZM17.7505 16.8755L17.5737 16.6987L16.6987 17.5737L16.8755 17.7505L17.0523 17.9273L17.9273 17.0523L17.7505 16.8755ZM16.8755 17.7505L17.0523 17.5737L16.1284 16.6499L15.9517 16.8267L15.7749 17.0035L16.6987 17.9273L16.8755 17.7505ZM15.9517 16.8267L16.1284 17.0035L17.0034 16.1285L16.8267 15.9517L16.6499 15.7749L15.7749 16.6499L15.9517 16.8267ZM16.8267 15.9517L16.6499 16.1285L17.5737 17.0523L17.7505 16.8755L17.9273 16.6987L17.0034 15.7749L16.8267 15.9517ZM2.87549 3.75051L3.06823 3.90973C5.35353 1.14331 9.57057 0.779404 12.3413 3.06825L12.5005 2.87551L12.6597 2.68277C9.68041 0.221607 5.14745 0.607699 2.68275 3.59129L2.87549 3.75051ZM12.5005 2.87551L12.3413 3.06823C15.1073 5.35364 15.4714 9.57076 13.1827 12.3413L13.3755 12.5005L13.5682 12.6597C16.0293 9.68058 15.6428 5.14756 12.6597 2.68278L12.5005 2.87551ZM13.3755 12.5005L13.1987 12.6773L15.5278 15.0064L15.7046 14.8296L15.8814 14.6528L13.5523 12.3237L13.3755 12.5005ZM15.7046 14.8296L15.5278 14.6528L14.6528 15.5278L14.8296 15.7046L15.0064 15.8814L15.8814 15.0064L15.7046 14.8296ZM14.8296 15.7046L15.0064 15.5278L12.6773 13.1987L12.5005 13.3755L12.3237 13.5523L14.6528 15.8814L14.8296 15.7046ZM12.5005 13.3755L12.3386 13.185C9.93211 15.2305 6.31905 15.2303 3.91238 13.185L3.75049 13.3755L3.5886 13.566C6.18193 15.7699 10.0692 15.7702 12.6624 13.566L12.5005 13.3755ZM3.75049 13.3755L3.90971 13.1828C1.14331 10.8975 0.779416 6.68043 3.06823 3.90972L2.87549 3.75051L2.68275 3.59129C0.221622 6.57058 0.607693 11.1036 3.59127 13.5682L3.75049 13.3755ZM8.12549 2.50051V2.25051C4.86242 2.25051 2.25049 4.86243 2.25049 8.12551H2.50049H2.75049C2.75049 5.13858 5.13856 2.75051 8.12549 2.75051V2.50051ZM2.50049 8.12551L2.25049 8.12552C2.25073 11.3884 4.86255 14.0005 8.12549 14.0005V13.7505V13.5005C5.13873 13.5005 2.75071 11.1122 2.75049 8.12549L2.50049 8.12551ZM8.12549 13.7505L8.12551 14.0005C11.3882 14.0002 14.0002 11.3882 14.0005 8.12552L13.7505 8.12551L13.5005 8.12549C13.5003 11.1121 11.1121 13.5003 8.12547 13.5005L8.12549 13.7505ZM13.7505 8.12551H14.0005C14.0005 4.86257 11.3883 2.25077 8.12551 2.25051L8.12549 2.50051L8.12547 2.75051C11.1122 2.75074 13.5005 5.13875 13.5005 8.12551H13.7505Z" fill="#0068B5"/>
</svg>
