<svg width="16" height="16" viewBox="0 0 16 16" fill="none" xmlns="http://www.w3.org/2000/svg">
<path d="M13.1828 2.27639C13.5662 2.13228 13.9932 2.21047 14.2981 2.48245C14.603 2.75266 14.7325 3.1672 14.6321 3.56155L12.301 12.96C12.217 13.2958 11.9867 13.5662 11.6692 13.7031C11.5305 13.7634 11.3825 13.793 11.2365 13.793C11.0503 13.793 10.8635 13.7434 10.6955 13.6485L7.90452 12.0635C7.76213 11.9832 7.58106 12.0091 7.46604 12.124L6.8176 12.7725C6.55836 13.0334 6.18777 13.1443 5.82639 13.0713C5.76993 13.0604 5.71516 13.0445 5.66233 13.0244C5.68421 13.0281 5.70464 13.0314 5.72288 13.0332C5.44902 12.931 5.15307 12.6953 4.99241 12.3594C4.67468 11.7002 3.96025 9.87668 3.77952 9.41116C3.7522 9.38569 3.72132 9.36211 3.68674 9.34573L1.94651 8.49417C1.54698 8.29873 1.31315 7.90248 1.33323 7.45901C1.35346 7.01554 1.62595 6.64332 2.04026 6.48635L13.1828 2.27639ZM4.47385 9.18655C4.67469 9.69777 5.35556 11.4344 5.64768 12.0479C5.70423 12.1662 5.80087 12.2518 5.88108 12.3047C6.27468 11.4172 6.93962 9.4571 6.94944 9.42776C6.95126 9.42411 6.95152 9.42165 6.95334 9.41799C6.98073 9.34335 7.02076 9.27915 7.07541 9.22268L10.4475 5.76858L4.47385 9.18655Z" fill="white"/>
</svg>
