<svg width="20" height="20" viewBox="0 0 20 20" fill="none" xmlns="http://www.w3.org/2000/svg">
<rect x="1" y="9" width="7.5" height="9.5" rx="2" fill="#E4E6EB"/>
<path d="M4 3.5C4 2.39543 4.89543 1.5 6 1.5H16.5C17.6046 1.5 18.5 2.39543 18.5 3.5V16.5C18.5 17.6046 17.6046 18.5 16.5 18.5H4V3.5Z" fill="#CCCCD0"/>
<path d="M10.7745 7.23758C10.9241 6.77693 11.5758 6.77693 11.7255 7.23758L12.2603 8.88348H13.9909C14.4753 8.88348 14.6767 9.50329 14.2848 9.78799L12.8847 10.8052L13.4195 12.4511C13.5692 12.9118 13.0419 13.2948 12.6501 13.0101L11.25 11.9929L9.8499 13.0101C9.45805 13.2948 8.93081 12.9118 9.08048 12.4511L9.61527 10.8052L8.21518 9.78799C7.82333 9.50329 8.02471 8.88348 8.50908 8.88348H10.2397L10.7745 7.23758Z" fill="#F5F6F8"/>
</svg>
