<svg width="16" height="16" viewBox="0 0 16 16" fill="none" xmlns="http://www.w3.org/2000/svg">
<path d="M13.3218 8.00001C15.2475 5.2961 16.2296 2.50157 14.8639 1.13594C13.4983 -0.229681 10.7038 0.75235 7.99988 2.67813C5.29598 0.75235 2.50145 -0.229681 1.13582 1.13594C-0.229803 2.50157 0.752228 5.2961 2.67801 8.00001C0.752228 10.7039 -0.229803 13.4984 1.13582 14.8641C1.57567 15.3039 2.16317 15.5 2.84754 15.5C4.29129 15.5 6.16629 14.6273 8.00379 13.3219C9.83348 14.6273 11.7085 15.5 13.1561 15.5C13.8405 15.5 14.4288 15.3031 14.8679 14.8641C16.2296 13.4984 15.2475 10.7039 13.3218 8.00001ZM13.9804 2.01954C14.5772 2.61641 14.1741 4.55079 12.5335 6.96329C12.0145 6.32078 11.4619 5.70612 10.878 5.12188C10.2937 4.53883 9.67906 3.98702 9.0366 3.46876C11.4491 1.82813 13.3835 1.42188 13.9804 2.01954ZM11.7725 8.00001C11.2197 8.69935 10.626 9.36536 9.99442 9.99454C9.36524 10.6261 8.69923 11.2198 7.99988 11.7727C7.30054 11.2198 6.63453 10.6261 6.00535 9.99454C5.37381 9.36536 4.78006 8.69935 4.22723 8.00001C5.33637 6.60232 6.6022 5.33649 7.99988 4.22735C8.69923 4.78018 9.36524 5.37393 9.99442 6.00548C10.626 6.63465 11.2197 7.30066 11.7725 8.00001ZM2.01942 2.01954C2.19129 1.84688 2.47488 1.75782 2.8491 1.75782C3.77254 1.75782 5.24676 2.29688 6.96238 3.46876C6.32054 3.98745 5.70616 4.53924 5.12176 5.12188C4.53871 5.70618 3.9869 6.32083 3.46863 6.96329C1.82801 4.55079 1.42254 2.61641 2.01942 2.01954ZM2.01942 13.9805C1.42254 13.3836 1.82801 11.4492 3.46863 9.03673C3.98766 9.67924 4.54025 10.2939 5.1241 10.8781C5.70802 11.4607 6.32187 12.0125 6.96317 12.5313C4.55067 14.1719 2.61629 14.5781 2.01942 13.9805ZM13.9804 13.9805C13.3835 14.5781 11.4491 14.1742 9.0366 12.5336C9.67876 12.0142 10.2934 11.4616 10.878 10.8781C11.4611 10.2938 12.0129 9.67918 12.5311 9.03673C14.1718 11.4492 14.5772 13.3836 13.9804 13.9805ZM8.93738 8.00001C8.93738 8.18543 8.8824 8.36668 8.77939 8.52085C8.67637 8.67502 8.52995 8.79519 8.35865 8.86614C8.18734 8.9371 7.99884 8.95567 7.81699 8.91949C7.63513 8.88332 7.46808 8.79403 7.33697 8.66292C7.20586 8.53181 7.11657 8.36476 7.0804 8.1829C7.04422 8.00105 7.06279 7.81255 7.13375 7.64124C7.2047 7.46993 7.32487 7.32352 7.47904 7.2205C7.63321 7.11749 7.81446 7.06251 7.99988 7.06251C8.24852 7.06251 8.48698 7.16128 8.6628 7.33709C8.83861 7.51291 8.93738 7.75137 8.93738 8.00001Z" fill="#4F4DFF"/>
</svg>
